# xmcd
#
# Track frame offsets:
#	150
#	12370
#	32450
#	52550
#	73400
#	92905
#	117410
#	147260
#	173975
#	209130
#	228845
#	271280
#	310770
#
# Disc length: 4493 seconds
#
# Revision: 1
# Processed by: cddbd v1.5PL3 Copyright (c) Steve Scherf et al.
# Submitted via: audiograbber 1.81.02
#
DISCID=b5118b0d
DTITLE=Mano Maniak and Hubert Hofherr - Live in der Krähenhöhle
DYEAR=2003
DGENRE=Blues
TTITLE0=Get Ready
TTITLE1=Walking the Dog
TTITLE2=You don´t have to go
TTITLE3=Malted Milk
TTITLE4=My Babe
TTITLE5=Before you accuse me
TTITLE6=You´re so fine
TTITLE7=Going up the Country
TTITLE8=Help me
TTITLE9=Bad is bad
TTITLE10=Should have been gone
TTITLE11=Mojo Boogie
TTITLE12=Kansas City
EXTD=Acoustic Blues Special - "Leidenschaft und Energie prägen die Ausstrahlung
EXTD=dieses hervorragenden Bluesduos in der klassischen Bluesbesetzung Gitarre
EXTD=und Bluesharp. Ein Muß für alle Bluesfans!" (Süddeutsche Zeitung)
EXTT0=
EXTT1=
EXTT2=
EXTT3=
EXTT4=
EXTT5=
EXTT6=
EXTT7=
EXTT8=
EXTT9=
EXTT10=
EXTT11=
EXTT12=
PLAYORDER=
